# xmcd CD database file
#
# Track frame offsets:
#	150
#	11569
#	22067
#	36172
#	46225
#	57005
#	68786
#	81515
#	92963
#	105969
#	116434
#	125735
#	136928
#	147075
#	159902
#	171107
#	182267
#	197289
#	207379
#	218226
#	228953
#	240190
#	249025
#	260728
#	273146
#	285364
#
# Disc length: 3931 seconds
#
# Revision: 1
# Processed by: cddbd v1.5.2PL0 Copyright (c) Steve Scherf et al.
# Submitted via: CDex 1.70beta2
#
DISCID=580f591a
DTITLE=Jim and Jesse - Bluegrass And More
DYEAR=1993
DGENRE=Bluegrass
TTITLE0=Stormy Horizons
TTITLE1=Gosh, I Miss You All The Time
TTITLE2=The Flame Of Love
TTITLE3=Beautiful Moon Of Kentucky
TTITLE4=My Empty Arms
TTITLE5=Diesel Train
TTITLE6=The Voice Of My Darling
TTITLE7=Uncle Will Played The Fiddle
TTITLE8=Fireball
TTITLE9=Heartaches And Flowers
TTITLE10=Sweet Little Miss Blue Eyes
TTITLE11=Somebody Loves You, Darling
TTITLE12=She Left Me Standing On The Mountain
TTITLE13=Don't Say Goodbye If You Love Me
TTITLE14=I Wish You Knew
TTITLE15=When It's Time For The Whippoorwill To Sing
TTITLE16=Grave In The Valley
TTITLE17=Blue Bonnet Lane
TTITLE18=Are You Missing Me
TTITLE19=Congratulations, Anyway!
TTITLE20=Pickin' And A-Grinnin'
TTITLE21=Stoney Creek
TTITLE22=Sixteen Hundred Miles From Home
TTITLE23=The South Bound Train
TTITLE24=Ballad Of Thunder Road
TTITLE25=Uncle Jimmy Lee
EXTD=YEAR: 1993
EXTT0=
EXTT1=
EXTT2=
EXTT3=
EXTT4=
EXTT5=
EXTT6=
EXTT7=
EXTT8=
EXTT9=
EXTT10=
EXTT11=
EXTT12=
EXTT13=
EXTT14=
EXTT15=
EXTT16=
EXTT17=
EXTT18=
EXTT19=
EXTT20=
EXTT21=
EXTT22=
EXTT23=
EXTT24=
EXTT25=
PLAYORDER=
